<?xml version="1.0" encoding="UTF-8" standalone="no"?>
<!DOCTYPE svg PUBLIC "-//W3C//DTD SVG 20010904//EN"
              "http://www.w3.org/TR/2001/REC-SVG-20010904/DTD/svg10.dtd">

<svg xmlns="http://www.w3.org/2000/svg"
     width="7.33001in" height="7.33001in"
     viewBox="0 0 2199 2199">
  <path id="Selection"
        fill="black" stroke="none"
        d="M 37.00,517.00
           C 47.60,516.04 52.12,511.54 61.00,507.32
             61.00,507.32 88.00,495.11 88.00,495.11
             88.00,495.11 102.00,488.60 102.00,488.60
             102.00,488.60 138.00,473.23 138.00,473.23
             138.00,473.23 169.00,460.57 169.00,460.57
             169.00,460.57 181.00,455.01 181.00,455.01
             181.00,455.01 272.00,420.37 272.00,420.37
             272.00,420.37 313.00,407.28 313.00,407.28
             313.00,407.28 323.00,403.46 323.00,403.46
             323.00,403.46 365.00,391.58 365.00,391.58
             365.00,391.58 385.00,385.39 385.00,385.39
             385.00,385.39 439.00,372.58 439.00,372.58
             439.00,372.58 455.00,368.43 455.00,368.43
             455.00,368.43 481.00,363.42 481.00,363.42
             481.00,363.42 539.00,355.17 539.00,355.17
             539.00,355.17 565.00,352.90 565.00,352.90
             565.00,352.90 573.00,352.90 573.00,352.90
             573.00,352.90 580.00,351.00 580.00,351.00
             575.25,354.82 558.65,358.80 552.00,361.08
             552.00,361.08 534.09,367.36 534.09,367.36
             534.09,367.36 522.00,372.58 522.00,372.58
             522.00,372.58 491.01,384.21 491.01,384.21
             491.01,384.21 481.96,388.77 481.96,388.77
             481.96,388.77 453.00,401.32 453.00,401.32
             453.00,401.32 444.00,406.34 444.00,406.34
             444.00,406.34 419.00,418.26 419.00,418.26
             419.00,418.26 409.00,424.21 409.00,424.21
             409.00,424.21 388.00,435.42 388.00,435.42
             388.00,435.42 375.00,443.58 375.00,443.58
             375.00,443.58 358.00,453.44 358.00,453.44
             358.00,453.44 349.00,459.76 349.00,459.76
             349.00,459.76 331.00,471.09 331.00,471.09
             331.00,471.09 322.00,477.96 322.00,477.96
             322.00,477.96 307.00,488.16 307.00,488.16
             282.83,505.96 259.48,525.66 237.83,546.42
             237.83,546.42 224.09,559.09 224.09,559.09
             224.09,559.09 202.83,582.00 202.83,582.00
             202.83,582.00 192.21,593.00 192.21,593.00
             192.21,593.00 186.79,600.00 186.79,600.00
             186.79,600.00 162.50,629.00 162.50,629.00
             129.36,672.39 100.12,719.32 77.31,769.00
             55.51,816.48 38.17,866.17 26.12,917.00
             26.12,917.00 18.45,949.00 18.45,949.00
             18.45,949.00 12.75,983.00 12.75,983.00
             12.75,983.00 7.06,1015.00 7.06,1015.00
             7.06,1015.00 7.06,1025.00 7.06,1025.00
             7.06,1025.00 4.28,1042.00 4.28,1042.00
             4.28,1042.00 2.91,1062.00 2.91,1062.00
             2.91,1062.00 0.96,1087.00 0.96,1087.00
             0.96,1087.00 0.96,1098.00 0.96,1098.00
             0.96,1098.00 0.00,1110.00 0.00,1110.00
             0.00,1110.00 0.00,1180.00 0.00,1180.00
             0.00,1180.00 1.00,1202.00 1.00,1202.00
             1.00,1202.00 1.91,1212.00 1.91,1212.00
             1.91,1212.00 7.85,1271.00 7.85,1271.00
             15.01,1330.93 28.45,1394.11 48.69,1451.00
             72.81,1518.79 112.70,1590.64 150.26,1652.00
             168.90,1682.47 189.36,1711.57 210.96,1740.00
             230.27,1765.42 250.23,1789.99 271.29,1814.00
             271.29,1814.00 283.83,1827.00 283.83,1827.00
             283.83,1827.00 292.09,1837.00 292.09,1837.00
             292.09,1837.00 315.00,1860.00 315.00,1860.00
             364.03,1909.54 412.94,1950.04 469.00,1991.25
             469.00,1991.25 486.96,2003.33 486.96,2003.33
             486.96,2003.33 496.01,2010.00 496.01,2010.00
             496.01,2010.00 513.91,2021.20 513.91,2021.20
             513.91,2021.20 551.01,2044.58 551.01,2044.58
             551.01,2044.58 570.00,2054.87 570.00,2054.87
             570.00,2054.87 579.00,2060.66 579.00,2060.66
             579.00,2060.66 603.99,2073.26 603.99,2073.26
             603.99,2073.26 613.04,2078.73 613.04,2078.73
             613.04,2078.73 640.00,2091.23 640.00,2091.23
             640.00,2091.23 650.04,2096.57 650.04,2096.57
             650.04,2096.57 679.96,2109.23 679.96,2109.23
             679.96,2109.23 689.01,2113.80 689.01,2113.80
             689.01,2113.80 724.96,2127.37 724.96,2127.37
             724.96,2127.37 739.00,2133.31 739.00,2133.31
             739.00,2133.31 776.00,2144.62 776.00,2144.62
             776.00,2144.62 785.00,2148.10 785.00,2148.10
             785.00,2148.10 834.99,2162.39 834.99,2162.39
             834.99,2162.39 849.00,2167.11 849.00,2167.11
             849.00,2167.11 868.00,2171.00 868.00,2171.00
             868.00,2171.00 883.00,2174.55 883.00,2174.55
             883.00,2174.55 911.00,2179.42 911.00,2179.42
             911.00,2179.42 924.00,2182.55 924.00,2182.55
             924.00,2182.55 960.00,2188.73 960.00,2188.73
             960.00,2188.73 995.00,2192.17 995.00,2192.17
             995.00,2192.17 1028.00,2195.09 1028.00,2195.09
             1028.00,2195.09 1071.00,2198.09 1071.00,2198.09
             1071.00,2198.09 1081.00,2199.00 1081.00,2199.00
             1081.00,2199.00 1158.00,2199.00 1158.00,2199.00
             1158.00,2199.00 1179.00,2198.00 1179.00,2198.00
             1179.00,2198.00 1195.00,2197.00 1195.00,2197.00
             1195.00,2197.00 1231.00,2194.17 1231.00,2194.17
             1257.76,2191.49 1284.51,2188.36 1311.00,2183.58
             1311.00,2183.58 1327.00,2179.81 1327.00,2179.81
             1327.00,2179.81 1378.00,2169.35 1378.00,2169.35
             1378.00,2169.35 1403.00,2162.39 1403.00,2162.39
             1403.00,2162.39 1452.00,2148.98 1452.00,2148.98
             1452.00,2148.98 1466.00,2143.67 1466.00,2143.67
             1466.00,2143.67 1499.00,2132.95 1499.00,2132.95
             1499.00,2132.95 1512.04,2127.37 1512.04,2127.37
             1512.04,2127.37 1547.00,2113.99 1547.00,2113.99
             1547.00,2113.99 1557.00,2109.23 1557.00,2109.23
             1557.00,2109.23 1584.00,2097.69 1584.00,2097.69
             1584.00,2097.69 1595.00,2091.89 1595.00,2091.89
             1595.00,2091.89 1621.00,2079.75 1621.00,2079.75
             1621.00,2079.75 1630.09,2074.48 1630.09,2074.48
             1630.09,2074.48 1646.00,2066.69 1646.00,2066.69
             1672.97,2052.10 1699.31,2036.42 1725.00,2019.69
             1725.00,2019.69 1742.91,2008.57 1742.91,2008.57
             1742.91,2008.57 1750.04,2003.08 1750.04,2003.08
             1750.04,2003.08 1765.00,1993.12 1765.00,1993.12
             1765.00,1993.12 1775.04,1985.02 1775.04,1985.02
             1862.36,1921.70 1939.35,1848.46 2006.55,1764.00
             2006.55,1764.00 2038.64,1721.00 2038.64,1721.00
             2093.16,1646.33 2123.34,1591.48 2163.26,1509.00
             2163.26,1509.00 2182.57,1467.00 2182.57,1467.00
             2182.57,1467.00 2187.31,1455.00 2187.31,1455.00
             2192.33,1443.65 2198.96,1430.41 2199.00,1418.00
             2191.29,1421.03 2188.97,1426.75 2184.00,1433.00
             2184.00,1433.00 2160.57,1462.00 2160.57,1462.00
             2160.57,1462.00 2120.04,1507.00 2120.04,1507.00
             2120.04,1507.00 2112.91,1514.91 2112.91,1514.91
             2112.91,1514.91 2104.00,1523.01 2104.00,1523.01
             2104.00,1523.01 2075.00,1550.41 2075.00,1550.41
             2075.00,1550.41 2056.00,1566.54 2056.00,1566.54
             2056.00,1566.54 2021.00,1594.08 2021.00,1594.08
             2021.00,1594.08 1988.00,1622.54 1988.00,1622.54
             1988.00,1622.54 1924.00,1672.52 1924.00,1672.52
             1924.00,1672.52 1881.00,1702.35 1881.00,1702.35
             1881.00,1702.35 1819.96,1743.40 1819.96,1743.40
             1819.96,1743.40 1772.00,1770.86 1772.00,1770.86
             1772.00,1770.86 1758.00,1779.21 1758.00,1779.21
             1758.00,1779.21 1736.00,1790.26 1736.00,1790.26
             1736.00,1790.26 1725.00,1796.74 1725.00,1796.74
             1725.00,1796.74 1699.01,1808.78 1699.01,1808.78
             1699.01,1808.78 1688.00,1814.77 1688.00,1814.77
             1688.00,1814.77 1661.00,1826.44 1661.00,1826.44
             1661.00,1826.44 1652.00,1830.96 1652.00,1830.96
             1652.00,1830.96 1618.00,1844.40 1618.00,1844.40
             1618.00,1844.40 1607.00,1849.31 1607.00,1849.31
             1607.00,1849.31 1570.00,1862.35 1570.00,1862.35
             1570.00,1862.35 1558.00,1867.33 1558.00,1867.33
             1558.00,1867.33 1516.00,1880.15 1516.00,1880.15
             1516.00,1880.15 1505.00,1884.14 1505.00,1884.14
             1505.00,1884.14 1451.00,1897.87 1451.00,1897.87
             1451.00,1897.87 1440.00,1901.16 1440.00,1901.16
             1414.72,1907.32 1388.68,1911.32 1363.00,1915.42
             1363.00,1915.42 1348.00,1918.58 1348.00,1918.58
             1348.00,1918.58 1288.00,1925.17 1288.00,1925.17
             1288.00,1925.17 1267.00,1927.00 1267.00,1927.00
             1267.00,1927.00 1250.00,1928.04 1250.00,1928.04
             1250.00,1928.04 1242.00,1928.04 1242.00,1928.04
             1242.00,1928.04 1230.00,1929.00 1230.00,1929.00
             1230.00,1929.00 1216.00,1929.00 1216.00,1929.00
             1216.00,1929.00 1203.00,1929.92 1203.00,1929.92
             1203.00,1929.92 1190.00,1929.00 1190.00,1929.00
             1190.00,1929.00 1179.00,1929.00 1179.00,1929.00
             1179.00,1929.00 1162.00,1927.96 1162.00,1927.96
             1162.00,1927.96 1145.00,1927.96 1145.00,1927.96
             1145.00,1927.96 1133.00,1927.00 1133.00,1927.00
             1133.00,1927.00 1118.00,1925.96 1118.00,1925.96
             1118.00,1925.96 1108.00,1925.96 1108.00,1925.96
             1108.00,1925.96 1088.00,1923.17 1088.00,1923.17
             1088.00,1923.17 1072.00,1921.71 1072.00,1921.71
             1072.00,1921.71 1043.00,1916.25 1043.00,1916.25
             1043.00,1916.25 1036.00,1915.33 1036.00,1915.33
             1036.00,1915.33 1022.00,1912.00 1022.00,1912.00
             1022.00,1912.00 979.00,1902.58 979.00,1902.58
             979.00,1902.58 964.00,1897.42 964.00,1897.42
             964.00,1897.42 923.01,1884.04 923.01,1884.04
             923.01,1884.04 912.99,1879.40 912.99,1879.40
             912.99,1879.40 883.00,1866.63 883.00,1866.63
             883.00,1866.63 872.00,1860.31 872.00,1860.31
             872.00,1860.31 853.00,1850.14 853.00,1850.14
             853.00,1850.14 831.00,1835.67 831.00,1835.67
             825.80,1832.19 814.31,1821.64 809.00,1821.33
             803.67,1821.02 799.84,1826.46 796.72,1830.00
             796.72,1830.00 785.04,1842.00 785.04,1842.00
             785.04,1842.00 776.96,1850.91 776.96,1850.91
             776.96,1850.91 766.00,1859.88 766.00,1859.88
             761.36,1863.49 759.32,1865.58 754.00,1868.56
             743.44,1874.48 726.09,1877.85 714.00,1878.00
             707.65,1878.07 703.25,1878.20 697.00,1876.51
             677.36,1871.22 658.02,1852.04 644.00,1838.00
             620.24,1814.21 599.29,1788.25 577.18,1763.00
             577.18,1763.00 570.82,1755.00 570.82,1755.00
             570.82,1755.00 561.09,1745.00 561.09,1745.00
             550.39,1733.52 539.54,1721.86 526.00,1713.61
             526.00,1713.61 507.91,1704.36 507.91,1704.36
             488.87,1696.93 457.64,1694.50 437.00,1693.09
             416.39,1691.68 416.26,1692.23 396.00,1686.42
             388.07,1684.15 379.29,1681.41 373.04,1675.79
             367.94,1671.21 360.16,1658.32 356.70,1652.00
             356.70,1652.00 336.74,1612.00 336.74,1612.00
             336.74,1612.00 285.43,1498.00 285.43,1498.00
             285.43,1498.00 265.57,1450.00 265.57,1450.00
             265.57,1450.00 232.87,1374.00 232.87,1374.00
             221.34,1347.13 209.64,1320.74 195.69,1295.00
             195.69,1295.00 176.94,1263.00 176.94,1263.00
             162.81,1240.24 148.40,1219.68 146.32,1192.00
             145.58,1182.12 151.15,1162.88 154.00,1153.00
             162.22,1124.50 173.83,1085.07 197.00,1065.30
             202.89,1060.27 212.44,1056.32 220.00,1054.61
             225.39,1053.40 233.49,1052.77 237.37,1048.61
             239.56,1046.26 241.82,1040.98 243.36,1038.00
             243.36,1038.00 254.23,1018.00 254.23,1018.00
             263.77,1001.68 278.20,981.48 290.32,967.00
             290.32,967.00 297.72,959.00 297.72,959.00
             297.72,959.00 310.01,945.01 310.01,945.01
             310.01,945.01 318.91,936.91 318.91,936.91
             318.91,936.91 325.09,930.17 325.09,930.17
             325.09,930.17 338.00,918.83 338.00,918.83
             354.82,903.64 373.07,889.19 392.01,876.69
             392.01,876.69 410.00,865.99 410.00,865.99
             410.00,865.99 426.00,856.31 426.00,856.31
             426.00,856.31 443.00,848.22 443.00,848.22
             443.00,848.22 453.00,842.89 453.00,842.89
             453.00,842.89 487.00,829.00 487.00,829.00
             437.07,878.78 379.02,917.09 356.98,988.00
             356.98,988.00 352.40,1004.00 352.40,1004.00
             349.49,1018.43 344.81,1040.67 345.00,1055.00
             345.18,1068.31 352.91,1066.65 363.00,1070.44
             363.00,1070.44 372.09,1074.79 372.09,1074.79
             372.09,1074.79 389.00,1081.42 389.00,1081.42
             389.00,1081.42 409.00,1089.47 409.00,1089.47
             412.67,1091.09 416.85,1093.02 420.91,1091.40
             426.21,1089.29 430.79,1076.15 433.48,1071.00
             433.48,1071.00 463.63,1021.00 463.63,1021.00
             473.82,1005.35 489.16,987.69 501.91,974.00
             522.75,951.63 537.55,936.76 562.00,918.12
             573.65,909.24 577.19,907.77 589.00,900.54
             597.05,895.61 605.52,890.49 615.00,889.00
             607.54,899.22 596.73,921.05 590.75,933.00
             571.61,971.29 558.53,1006.20 545.98,1047.00
             545.98,1047.00 534.12,1092.00 534.12,1092.00
             531.86,1101.53 528.11,1119.56 528.00,1129.00
             527.97,1131.97 527.57,1137.02 529.74,1139.28
             531.88,1141.51 538.89,1142.43 542.00,1143.17
             553.69,1145.95 565.89,1148.85 578.00,1149.00
             578.00,1149.00 601.00,1149.00 601.00,1149.00
             601.00,1149.00 618.00,1148.00 618.00,1148.00
             618.00,1148.00 652.00,1147.00 652.00,1147.00
             652.00,1147.00 668.00,1146.00 668.00,1146.00
             668.00,1146.00 716.00,1146.00 716.00,1146.00
             732.82,1146.20 764.55,1151.14 780.00,1157.45
             793.68,1163.04 808.01,1174.04 819.00,1183.72
             834.75,1197.58 850.66,1214.74 862.66,1232.00
             862.66,1232.00 886.09,1264.00 886.09,1264.00
             891.27,1271.26 892.40,1277.17 902.00,1279.00
             902.00,1279.00 912.00,1232.00 912.00,1232.00
             912.00,1232.00 915.19,1219.00 915.19,1219.00
             915.19,1219.00 920.41,1188.00 920.41,1188.00
             920.41,1188.00 927.72,1141.00 927.72,1141.00
             927.72,1141.00 931.09,1095.00 931.09,1095.00
             931.09,1095.00 933.00,1072.00 933.00,1072.00
             933.00,1072.00 933.00,1063.00 933.00,1063.00
             933.00,1063.00 934.00,1052.00 934.00,1052.00
             934.00,1052.00 935.00,1034.00 935.00,1034.00
             935.00,1034.00 935.00,992.00 935.00,992.00
             935.00,992.00 934.00,970.00 934.00,970.00
             934.00,970.00 932.17,947.00 932.17,947.00
             932.17,947.00 930.83,928.00 930.83,928.00
             930.83,928.00 924.27,879.00 924.27,879.00
             918.78,843.41 910.35,802.68 897.77,769.00
             889.63,747.19 880.25,725.86 868.06,706.00
             863.21,698.09 856.63,687.10 846.91,684.54
             844.46,683.90 840.59,683.97 838.00,684.00
             821.88,684.19 793.66,697.22 780.00,705.77
             780.00,705.77 762.01,716.74 762.01,716.74
             762.01,716.74 751.99,724.63 751.99,724.63
             725.50,744.80 704.44,766.95 685.09,794.00
             685.09,794.00 670.00,817.00 670.00,817.00
             665.93,823.18 658.97,834.11 657.00,841.00
             655.81,833.16 661.88,807.39 663.58,798.00
             670.72,758.41 682.41,715.31 705.72,682.00
             714.12,670.00 723.74,658.44 734.09,648.09
             734.09,648.09 741.99,640.96 741.99,640.96
             745.47,637.54 753.56,628.58 751.39,623.22
             750.36,620.69 747.32,619.76 745.00,618.80
             745.00,618.80 731.00,612.60 731.00,612.60
             725.34,610.31 707.25,603.51 702.00,603.09
             688.76,602.03 670.87,611.70 659.00,617.36
             606.62,642.34 559.49,688.17 533.40,740.00
             527.68,751.37 515.84,776.06 514.00,788.00
             512.39,782.32 512.93,774.05 513.00,768.00
             513.11,758.61 516.47,739.64 518.40,730.00
             518.40,730.00 525.02,702.00 525.02,702.00
             537.19,662.91 561.23,624.95 590.09,596.09
             590.09,596.09 611.00,577.75 611.00,577.75
             611.00,577.75 623.70,568.77 623.70,568.77
             630.52,562.61 616.75,555.92 613.80,549.99
             610.21,542.73 618.72,526.09 625.04,522.12
             631.09,518.53 641.05,521.55 648.00,522.12
             648.00,522.12 705.00,527.26 705.00,527.26
             705.00,527.26 711.00,528.74 711.00,528.74
             711.00,528.74 729.00,530.09 729.00,530.09
             729.00,530.09 788.00,535.42 788.00,535.42
             801.30,537.83 813.56,541.83 826.00,546.91
             826.00,546.91 844.00,554.31 844.00,554.31
             864.72,563.82 888.06,579.93 905.00,595.17
             905.00,595.17 923.83,613.04 923.83,613.04
             923.83,613.04 930.30,621.00 930.30,621.00
             930.30,621.00 938.18,630.00 938.18,630.00
             955.29,651.68 969.72,677.54 982.52,702.00
             982.52,702.00 988.26,714.00 988.26,714.00
             988.26,714.00 1038.26,816.00 1038.26,816.00
             1038.26,816.00 1069.63,878.00 1069.63,878.00
             1069.63,878.00 1122.19,983.00 1122.19,983.00
             1122.19,983.00 1207.75,1155.00 1207.75,1155.00
             1207.75,1155.00 1244.75,1229.00 1244.75,1229.00
             1254.30,1248.10 1266.75,1273.51 1278.36,1291.00
             1290.48,1309.26 1312.15,1333.02 1329.00,1346.92
             1345.23,1360.30 1362.32,1372.88 1381.00,1382.68
             1381.00,1382.68 1392.96,1388.17 1392.96,1388.17
             1392.96,1388.17 1402.01,1392.79 1402.01,1392.79
             1419.72,1400.11 1438.17,1403.46 1457.00,1406.17
             1457.00,1406.17 1473.00,1408.83 1473.00,1408.83
             1473.00,1408.83 1494.00,1410.09 1494.00,1410.09
             1494.00,1410.09 1504.00,1411.00 1504.00,1411.00
             1525.97,1411.25 1548.14,1413.82 1570.00,1416.16
             1570.00,1416.16 1603.00,1420.00 1603.00,1420.00
             1607.45,1420.05 1611.98,1420.26 1615.91,1417.77
             1623.46,1413.00 1630.60,1392.73 1628.61,1384.00
             1626.50,1374.76 1616.71,1373.84 1621.29,1368.46
             1621.29,1368.46 1636.00,1356.83 1636.00,1356.83
             1636.00,1356.83 1659.09,1334.00 1659.09,1334.00
             1659.09,1334.00 1668.49,1324.00 1668.49,1324.00
             1714.09,1266.87 1732.87,1201.51 1727.00,1129.00
             1725.24,1129.31 1724.21,1129.22 1722.81,1130.60
             1720.80,1132.58 1715.86,1148.15 1714.42,1152.00
             1705.97,1174.59 1696.45,1197.09 1682.56,1217.00
             1655.26,1256.13 1620.89,1288.80 1578.00,1310.25
             1569.45,1314.52 1545.51,1326.67 1537.00,1327.19
             1532.55,1327.46 1526.19,1324.48 1522.00,1322.80
             1511.46,1318.58 1500.24,1312.03 1489.00,1310.00
             1489.00,1310.00 1500.04,1298.00 1500.04,1298.00
             1514.02,1283.39 1528.15,1269.29 1538.94,1252.00
             1560.45,1217.52 1570.24,1177.43 1578.00,1138.00
             1578.00,1138.00 1582.71,1112.00 1582.71,1112.00
             1582.71,1112.00 1584.73,1094.00 1584.73,1094.00
             1585.09,1091.46 1587.59,1080.48 1585.36,1079.17
             1581.01,1076.61 1575.63,1088.23 1574.25,1091.00
             1566.32,1106.84 1557.38,1121.93 1546.58,1136.00
             1517.02,1174.50 1488.01,1204.70 1445.04,1228.25
             1445.04,1228.25 1436.96,1233.19 1436.96,1233.19
             1426.44,1238.69 1405.86,1246.39 1394.00,1244.81
             1381.41,1243.14 1371.07,1223.45 1365.76,1213.00
             1365.76,1213.00 1358.32,1199.00 1358.32,1199.00
             1346.35,1173.82 1333.10,1136.25 1327.21,1109.00
             1327.21,1109.00 1319.61,1074.00 1319.61,1074.00
             1314.60,1047.25 1310.81,1020.13 1308.91,993.00
             1308.91,993.00 1307.00,963.00 1307.00,963.00
             1307.00,963.00 1306.00,947.00 1306.00,947.00
             1306.00,947.00 1306.00,891.00 1306.00,891.00
             1306.00,891.00 1307.00,874.00 1307.00,874.00
             1307.00,874.00 1309.83,835.00 1309.83,835.00
             1309.83,835.00 1312.17,805.00 1312.17,805.00
             1312.17,805.00 1314.72,788.00 1314.72,788.00
             1314.72,788.00 1315.29,780.00 1315.29,780.00
             1315.29,780.00 1320.75,747.00 1320.75,747.00
             1325.54,719.42 1331.15,692.14 1338.00,665.00
             1354.77,690.14 1372.57,714.57 1392.83,737.00
             1406.93,752.61 1422.36,767.10 1441.00,777.21
             1454.37,784.46 1469.26,787.84 1484.00,790.96
             1484.00,790.96 1491.00,792.96 1491.00,792.96
             1491.00,792.96 1500.00,792.96 1500.00,792.96
             1500.00,792.96 1520.00,795.00 1520.00,795.00
             1520.00,795.00 1568.00,795.00 1568.00,795.00
             1568.00,795.00 1580.00,794.04 1580.00,794.04
             1580.00,794.04 1595.00,794.04 1595.00,794.04
             1595.00,794.04 1608.00,792.94 1608.00,792.94
             1608.00,792.94 1621.00,792.94 1621.00,792.94
             1626.90,792.21 1624.37,791.02 1634.00,791.00
             1634.00,791.00 1650.00,791.00 1650.00,791.00
             1650.00,791.00 1703.00,798.00 1703.00,798.00
             1703.00,823.53 1695.93,848.69 1688.72,873.00
             1676.78,913.23 1664.22,946.68 1647.14,985.00
             1647.14,985.00 1626.55,1025.00 1626.55,1025.00
             1621.53,1033.44 1613.56,1042.95 1613.00,1053.00
             1632.52,1052.57 1651.09,1040.02 1667.00,1029.95
             1680.25,1021.55 1692.43,1011.19 1704.09,1000.75
             1732.31,975.51 1758.89,945.51 1780.00,914.00
             1790.01,899.06 1799.29,884.17 1807.24,868.00
             1809.29,863.83 1813.97,851.19 1817.90,849.48
             1820.26,848.45 1825.60,851.42 1828.00,852.40
             1828.00,852.40 1855.00,863.96 1855.00,863.96
             1855.00,863.96 1875.00,871.28 1875.00,871.28
             1878.30,872.28 1883.07,873.06 1885.20,876.22
             1886.63,878.96 1885.86,883.96 1885.20,887.00
             1885.20,887.00 1882.27,908.00 1882.27,908.00
             1876.95,944.12 1863.84,977.39 1840.69,1006.00
             1819.35,1032.37 1789.41,1060.04 1764.00,1082.84
             1764.00,1082.84 1753.91,1092.42 1753.91,1092.42
             1753.91,1092.42 1741.09,1104.00 1741.09,1104.00
             1736.86,1108.50 1733.72,1111.73 1733.00,1118.00
             1744.64,1117.02 1755.60,1111.56 1766.00,1106.69
             1766.00,1106.69 1795.96,1093.68 1795.96,1093.68
             1795.96,1093.68 1804.04,1088.78 1804.04,1088.78
             1804.04,1088.78 1827.00,1076.54 1827.00,1076.54
             1827.00,1076.54 1836.00,1070.44 1836.00,1070.44
             1836.00,1070.44 1852.99,1060.00 1852.99,1060.00
             1852.99,1060.00 1862.04,1053.02 1862.04,1053.02
             1862.04,1053.02 1876.99,1042.63 1876.99,1042.63
             1909.68,1017.61 1939.61,987.93 1964.34,955.00
             1971.22,945.84 1983.50,927.94 1988.64,918.00
             1988.64,918.00 2002.63,891.22 2002.63,891.22
             2006.90,886.27 2018.57,885.72 2025.00,884.11
             2034.29,881.77 2042.96,876.29 2049.98,869.83
             2058.33,862.15 2063.83,850.01 2068.76,840.00
             2074.90,827.50 2078.90,814.26 2083.02,801.00
             2089.80,779.19 2094.02,766.12 2095.49,743.00
             2096.03,734.49 2093.05,723.06 2090.33,715.00
             2082.52,691.80 2067.40,672.00 2055.28,651.00
             2026.65,601.37 2005.28,548.59 1982.87,496.00
             1957.83,437.23 1934.84,377.18 1906.25,320.00
             1906.25,320.00 1886.97,282.00 1886.97,282.00
             1882.59,273.27 1875.63,259.48 1868.00,253.53
             1853.46,242.19 1828.10,237.90 1810.00,236.04
             1810.00,236.04 1801.00,236.04 1801.00,236.04
             1801.00,236.04 1773.00,234.00 1773.00,234.00
             1762.43,233.87 1751.83,230.97 1742.00,227.37
             1730.31,223.08 1722.81,221.32 1712.04,213.92
             1712.04,213.92 1703.96,207.20 1703.96,207.20
             1703.96,207.20 1694.00,198.91 1694.00,198.91
             1694.00,198.91 1683.91,188.00 1683.91,188.00
             1683.91,188.00 1674.17,178.00 1674.17,178.00
             1674.17,178.00 1654.70,155.00 1654.70,155.00
             1654.70,155.00 1628.18,125.00 1628.18,125.00
             1628.18,125.00 1621.82,117.00 1621.82,117.00
             1621.82,117.00 1612.46,107.00 1612.46,107.00
             1612.46,107.00 1595.28,88.83 1595.28,88.83
             1580.95,74.13 1567.32,62.24 1548.00,54.66
             1548.00,54.66 1540.00,51.55 1540.00,51.55
             1540.00,51.55 1529.00,50.17 1529.00,50.17
             1523.13,49.61 1519.62,50.29 1514.00,51.07
             1514.00,51.07 1506.00,51.07 1506.00,51.07
             1506.00,51.07 1496.00,54.09 1496.00,54.09
             1479.06,58.91 1470.31,63.57 1457.00,75.28
             1457.00,75.28 1435.00,98.00 1435.00,98.00
             1433.18,99.84 1428.92,105.34 1426.20,104.83
             1424.77,104.57 1419.62,100.18 1418.00,99.04
             1418.00,99.04 1404.09,89.92 1404.09,89.92
             1404.09,89.92 1396.96,84.44 1396.96,84.44
             1396.96,84.44 1376.01,72.74 1376.01,72.74
             1376.01,72.74 1366.96,67.26 1366.96,67.26
             1366.96,67.26 1342.00,55.85 1342.00,55.85
             1342.00,55.85 1331.00,50.62 1331.00,50.62
             1331.00,50.62 1300.00,39.67 1300.00,39.67
             1300.00,39.67 1281.96,33.15 1281.96,33.15
             1281.96,33.15 1224.00,18.71 1224.00,18.71
             1224.00,18.71 1203.00,13.46 1203.00,13.46
             1203.00,13.46 1189.00,11.58 1189.00,11.58
             1189.00,11.58 1155.00,6.83 1155.00,6.83
             1155.00,6.83 1111.00,2.04 1111.00,2.04
             1111.00,2.04 1102.00,2.04 1102.00,2.04
             1102.00,2.04 1090.00,0.96 1090.00,0.96
             1090.00,0.96 1075.00,0.96 1075.00,0.96
             1075.00,0.96 1063.00,0.00 1063.00,0.00
             1063.00,0.00 1012.00,0.00 1012.00,0.00
             1012.00,0.00 995.00,1.00 995.00,1.00
             995.00,1.00 947.00,4.00 947.00,4.00
             947.00,4.00 939.00,4.00 939.00,4.00
             908.70,7.06 877.93,10.41 848.00,16.09
             848.00,16.09 836.00,19.19 836.00,19.19
             836.00,19.19 769.00,33.25 769.00,33.25
             769.00,33.25 759.00,36.61 759.00,36.61
             759.00,36.61 707.00,50.72 707.00,50.72
             707.00,50.72 696.00,54.96 696.00,54.96
             696.00,54.96 662.00,65.69 662.00,65.69
             662.00,65.69 646.00,72.29 646.00,72.29
             646.00,72.29 613.00,84.20 613.00,84.20
             613.00,84.20 599.99,90.19 599.99,90.19
             599.99,90.19 571.00,101.86 571.00,101.86
             571.00,101.86 560.00,107.56 560.00,107.56
             560.00,107.56 531.04,120.32 531.04,120.32
             531.04,120.32 524.83,124.03 524.83,124.03
             524.83,124.03 511.00,130.74 511.00,130.74
             511.00,130.74 497.00,137.26 497.00,137.26
             497.00,137.26 488.00,142.67 488.00,142.67
             488.00,142.67 471.00,151.31 471.00,151.31
             471.00,151.31 456.91,159.69 456.91,159.69
             456.91,159.69 432.00,173.34 432.00,173.34
             432.00,173.34 424.00,178.68 424.00,178.68
             424.00,178.68 404.09,190.31 404.09,190.31
             404.09,190.31 396.96,195.39 396.96,195.39
             396.96,195.39 379.00,206.34 379.00,206.34
             379.00,206.34 369.91,212.95 369.91,212.95
             369.91,212.95 355.00,222.51 355.00,222.51
             355.00,222.51 342.00,231.96 342.00,231.96
             342.00,231.96 326.00,242.75 326.00,242.75
             326.00,242.75 316.00,250.57 316.00,250.57
             288.98,270.00 262.69,290.29 237.00,311.46
             237.00,311.46 228.00,319.56 228.00,319.56
             228.00,319.56 194.09,348.58 194.09,348.58
             194.09,348.58 167.00,373.91 167.00,373.91
             167.00,373.91 138.17,401.17 138.17,401.17
             138.17,401.17 115.92,424.99 115.92,424.99
             115.92,424.99 106.00,434.18 106.00,434.18
             106.00,434.18 98.91,442.00 98.91,442.00
             98.91,442.00 51.49,494.00 51.49,494.00
             44.92,502.21 37.29,505.57 37.00,517.00 Z
           M 1535.00,268.40
           C 1542.72,267.54 1546.91,271.26 1551.67,277.00
             1556.85,283.24 1567.10,302.09 1571.58,310.00
             1571.58,310.00 1587.78,341.00 1587.78,341.00
             1587.78,341.00 1601.60,367.00 1601.60,367.00
             1601.60,367.00 1611.45,392.00 1611.45,392.00
             1611.45,392.00 1629.56,437.00 1629.56,437.00
             1629.56,437.00 1638.22,462.00 1638.22,462.00
             1642.81,474.73 1651.03,495.45 1653.55,508.00
             1654.73,513.84 1656.91,522.65 1648.98,524.69
             1644.19,525.92 1634.85,523.61 1630.00,522.37
             1612.56,517.90 1600.65,512.29 1586.00,501.86
             1570.68,490.95 1549.23,474.98 1537.21,461.00
             1519.17,440.02 1510.10,414.29 1507.92,387.00
             1507.92,387.00 1507.00,377.00 1507.00,377.00
             1506.63,345.19 1505.94,325.82 1516.69,295.00
             1520.13,285.16 1524.14,271.88 1535.00,268.40 Z
           M 488.00,828.00
           C 488.00,828.00 488.00,829.00 488.00,829.00
             488.00,829.00 487.00,828.00 487.00,828.00
             487.00,828.00 488.00,828.00 488.00,828.00 Z
           M 585.00,1406.85
           C 576.58,1411.51 577.52,1417.67 578.92,1426.00
             580.60,1435.97 589.42,1460.97 593.40,1471.00
             593.40,1471.00 604.05,1501.00 604.05,1501.00
             604.05,1501.00 620.40,1542.00 620.40,1542.00
             620.40,1542.00 631.17,1569.00 631.17,1569.00
             631.17,1569.00 662.72,1629.00 662.72,1629.00
             668.28,1638.78 677.42,1656.44 685.04,1663.96
             690.27,1669.12 696.66,1672.55 704.00,1669.66
             711.82,1666.58 715.34,1658.20 718.42,1651.00
             725.35,1634.81 731.79,1611.64 732.00,1594.00
             732.36,1563.16 733.34,1530.81 720.56,1502.00
             713.17,1485.33 699.36,1468.55 685.91,1456.44
             685.91,1456.44 671.04,1444.87 671.04,1444.87
             671.04,1444.87 653.00,1431.02 653.00,1431.02
             653.00,1431.02 639.00,1421.47 639.00,1421.47
             631.81,1417.21 613.44,1411.17 605.00,1409.13
             598.42,1407.54 591.72,1405.01 585.00,1406.85 Z" />
</svg>
