<?xml version="1.0" encoding="UTF-8" standalone="no"?>
<!DOCTYPE svg PUBLIC "-//W3C//DTD SVG 20010904//EN"
              "http://www.w3.org/TR/2001/REC-SVG-20010904/DTD/svg10.dtd">

<svg xmlns="http://www.w3.org/2000/svg"
     width="7.33001in" height="7.33001in"
     viewBox="0 0 2199 2199">
  <path id="Selection"
        fill="black" stroke="none"
        d="M 37.00,549.00
           C 43.02,548.36 51.34,543.95 57.00,541.25
             57.00,541.25 87.00,527.85 87.00,527.85
             87.00,527.85 193.00,485.23 193.00,485.23
             276.84,453.92 362.31,427.77 450.00,409.72
             490.31,401.42 546.10,393.00 587.00,393.00
             587.00,393.00 554.00,403.51 554.00,403.51
             522.28,414.09 490.57,425.74 460.00,439.31
             350.85,487.76 255.91,550.66 176.72,641.00
             105.98,721.69 58.78,813.09 29.56,916.00
             29.56,916.00 21.50,949.00 21.50,949.00
             21.50,949.00 19.01,958.00 19.01,958.00
             19.01,958.00 14.58,983.00 14.58,983.00
             14.58,983.00 7.23,1023.99 7.23,1023.99
             7.23,1023.99 7.23,1031.17 7.23,1031.17
             7.23,1031.17 5.17,1043.00 5.17,1043.00
             1.59,1079.33 -0.04,1115.47 0.00,1152.00
             0.00,1152.00 1.00,1182.00 1.00,1182.00
             1.13,1199.54 4.67,1230.92 6.86,1248.99
             14.60,1312.86 28.48,1376.97 52.00,1437.00
             68.88,1480.07 98.61,1535.10 122.55,1575.00
             207.64,1716.82 318.69,1833.97 454.00,1928.80
             543.78,1991.72 645.97,2042.51 750.00,2077.07
             750.00,2077.07 821.00,2097.92 821.00,2097.92
             821.00,2097.92 854.00,2106.57 854.00,2106.57
             854.00,2106.57 872.00,2109.96 872.00,2109.96
             872.00,2109.96 882.00,2112.60 882.00,2112.60
             882.00,2112.60 915.00,2118.42 915.00,2118.42
             915.00,2118.42 964.00,2126.71 964.00,2126.71
             964.00,2126.71 1021.00,2132.17 1021.00,2132.17
             1021.00,2132.17 1076.00,2136.00 1076.00,2136.00
             1076.00,2136.00 1110.00,2137.00 1110.00,2137.00
             1141.32,2137.27 1172.79,2136.06 1204.00,2133.91
             1279.55,2128.72 1360.05,2113.89 1433.00,2093.58
             1547.26,2061.77 1658.79,2010.55 1758.00,1945.66
             1758.00,1945.66 1797.00,1918.14 1797.00,1918.14
             1900.28,1844.12 1986.08,1757.97 2060.42,1655.00
             2086.76,1618.53 2111.56,1580.54 2133.08,1541.00
             2150.45,1509.07 2167.34,1477.11 2182.37,1444.00
             2182.37,1444.00 2193.28,1419.00 2193.28,1419.00
             2195.85,1413.02 2198.64,1407.58 2199.00,1401.00
             2193.36,1402.85 2189.62,1409.54 2185.92,1414.00
             2185.92,1414.00 2158.72,1446.00 2158.72,1446.00
             2129.97,1479.00 2097.16,1509.47 2063.00,1536.80
             2063.00,1536.80 2027.00,1563.66 2027.00,1563.66
             2027.00,1563.66 1989.83,1593.58 1989.83,1593.58
             1989.83,1593.58 1961.96,1614.98 1961.96,1614.98
             1961.96,1614.98 1943.04,1628.20 1943.04,1628.20
             1943.04,1628.20 1933.99,1635.49 1933.99,1635.49
             1933.99,1635.49 1908.00,1652.75 1908.00,1652.75
             1908.00,1652.75 1850.00,1690.69 1850.00,1690.69
             1796.12,1724.09 1727.53,1759.48 1669.00,1783.94
             1568.47,1825.94 1467.59,1855.64 1359.73,1871.45
             1329.48,1875.88 1299.48,1879.16 1269.00,1881.24
             1269.00,1881.24 1232.58,1883.22 1232.58,1883.22
             1232.58,1883.22 1202.00,1884.00 1202.00,1884.00
             1202.00,1884.00 1129.00,1881.41 1129.00,1881.41
             1129.00,1881.41 1104.00,1879.83 1104.00,1879.83
             1104.00,1879.83 1096.00,1878.51 1096.00,1878.51
             1096.00,1878.51 1070.00,1875.91 1070.00,1875.91
             1070.00,1875.91 1050.00,1872.43 1050.00,1872.43
             1050.00,1872.43 1034.00,1870.59 1034.00,1870.59
             1034.00,1870.59 1021.00,1867.26 1021.00,1867.26
             1021.00,1867.26 1000.00,1863.50 1000.00,1863.50
             962.47,1854.63 925.25,1843.47 890.00,1827.63
             890.00,1827.63 879.00,1822.96 879.00,1822.96
             862.48,1814.86 844.17,1805.03 829.00,1794.71
             829.00,1794.71 815.00,1784.86 815.00,1784.86
             813.10,1783.54 810.51,1781.52 808.09,1781.57
             804.78,1781.65 800.96,1786.54 798.71,1788.73
             798.71,1788.73 776.91,1810.42 776.91,1810.42
             756.51,1828.37 740.10,1834.87 713.00,1835.18
             713.00,1835.18 704.00,1835.18 704.00,1835.18
             695.30,1835.07 686.35,1830.80 679.00,1826.40
             663.51,1817.13 655.04,1809.41 642.04,1797.17
             619.82,1776.23 599.59,1752.69 579.17,1730.00
             562.57,1711.57 545.23,1692.67 524.00,1679.53
             509.06,1670.29 493.90,1667.57 477.00,1664.75
             477.00,1664.75 464.00,1662.59 464.00,1662.59
             464.00,1662.59 416.00,1659.08 416.00,1659.08
             403.15,1657.00 380.70,1652.75 371.04,1643.87
             364.93,1638.25 354.87,1621.70 350.58,1614.00
             350.58,1614.00 328.37,1571.00 328.37,1571.00
             305.85,1524.03 283.69,1476.87 263.13,1429.00
             263.13,1429.00 239.57,1377.00 239.57,1377.00
             224.99,1344.67 210.66,1312.59 192.55,1282.00
             192.55,1282.00 178.25,1259.00 178.25,1259.00
             164.79,1238.89 147.15,1214.76 145.14,1189.96
             144.00,1175.89 148.39,1163.20 152.34,1150.00
             161.44,1119.56 171.93,1085.63 197.28,1064.61
             203.45,1059.50 214.23,1057.30 222.00,1055.80
             226.84,1054.87 232.95,1054.71 236.37,1050.78
             236.37,1050.78 250.20,1026.00 250.20,1026.00
             258.44,1012.20 272.01,993.18 282.43,981.00
             326.56,929.38 386.59,884.66 449.00,857.72
             449.00,857.72 495.00,839.00 495.00,839.00
             495.00,839.00 475.04,857.00 475.04,857.00
             439.99,888.21 399.40,918.80 374.42,959.00
             365.04,974.11 358.38,990.94 353.56,1008.00
             353.56,1008.00 351.19,1020.00 351.19,1020.00
             351.19,1020.00 348.61,1031.00 348.61,1031.00
             348.61,1031.00 346.08,1049.00 346.08,1049.00
             345.45,1053.14 344.65,1062.09 347.72,1065.30
             350.30,1067.99 359.26,1069.89 363.00,1071.04
             363.00,1071.04 389.00,1081.05 389.00,1081.05
             389.00,1081.05 412.00,1090.25 412.00,1090.25
             414.41,1090.93 418.47,1092.06 420.79,1090.89
             424.45,1089.05 429.77,1076.19 432.00,1072.00
             440.02,1056.99 449.34,1042.96 459.02,1029.00
             484.05,992.93 531.16,945.90 568.00,922.14
             579.93,914.45 604.06,899.77 618.00,899.00
             608.48,911.42 598.32,930.92 590.69,945.00
             568.30,986.31 551.91,1030.85 539.26,1076.00
             535.07,1090.94 531.64,1105.61 529.43,1121.00
             528.92,1124.51 527.39,1134.82 530.33,1137.02
             532.22,1138.43 545.80,1140.55 549.00,1141.08
             575.70,1145.53 573.06,1145.03 600.00,1145.00
             600.00,1145.00 616.00,1144.09 616.00,1144.09
             616.00,1144.09 648.00,1143.00 648.00,1143.00
             648.00,1143.00 670.00,1142.00 670.00,1142.00
             670.00,1142.00 708.00,1142.00 708.00,1142.00
             731.15,1142.20 759.37,1145.09 781.00,1153.43
             812.76,1165.68 844.64,1198.29 864.87,1225.00
             864.87,1225.00 889.60,1257.00 889.60,1257.00
             893.35,1261.74 894.99,1266.97 901.00,1268.00
             901.00,1268.00 911.50,1221.00 911.50,1221.00
             911.50,1221.00 913.99,1212.00 913.99,1212.00
             913.99,1212.00 920.25,1177.00 920.25,1177.00
             920.25,1177.00 926.71,1138.00 926.71,1138.00
             926.71,1138.00 929.90,1099.72 929.90,1099.72
             929.90,1099.72 934.00,1036.00 934.00,1036.00
             934.00,1036.00 934.00,1002.00 934.00,1002.00
             934.00,1002.00 933.00,982.00 933.00,982.00
             933.00,982.00 932.09,967.00 932.09,967.00
             930.49,943.72 928.09,921.05 924.25,898.00
             918.56,863.90 912.56,834.91 901.48,802.00
             894.09,780.03 882.02,753.77 870.00,734.00
             866.09,727.58 857.55,714.09 850.99,710.90
             844.80,707.88 836.55,708.53 830.00,709.59
             814.86,712.05 800.59,718.96 787.00,725.75
             744.81,746.85 701.18,787.66 675.50,827.00
             668.95,837.03 658.86,851.13 655.00,862.00
             653.59,852.68 659.48,829.17 661.39,819.00
             668.97,778.56 678.95,741.38 702.66,707.00
             709.53,697.04 719.36,685.53 728.04,677.09
             728.04,677.09 739.00,667.00 739.00,667.00
             741.81,664.20 751.93,655.29 751.13,651.27
             750.69,649.12 747.77,648.18 746.00,647.48
             746.00,647.48 730.00,641.39 730.00,641.39
             730.00,641.39 702.00,631.39 702.00,631.39
             696.50,630.95 688.16,633.85 683.00,635.81
             683.00,635.81 659.00,645.76 659.00,645.76
             603.99,672.81 560.46,711.33 531.70,766.00
             526.25,776.36 515.50,800.06 513.00,811.00
             510.44,804.14 511.68,794.93 511.83,787.58
             512.10,774.50 514.62,761.75 517.34,749.00
             517.34,749.00 519.48,738.00 519.48,738.00
             534.11,680.72 574.74,626.66 625.00,596.00
             622.61,588.69 612.08,587.46 611.18,579.00
             610.39,571.51 618.08,554.60 626.00,552.43
             631.32,550.97 641.11,553.28 646.83,553.70
             646.83,553.70 705.04,558.97 705.04,558.97
             705.04,558.97 726.00,560.75 726.00,560.75
             726.00,560.75 755.00,562.83 755.00,562.83
             755.00,562.83 786.00,565.45 786.00,565.45
             839.06,576.29 879.18,596.99 919.00,634.09
             946.35,659.57 962.90,686.97 981.13,719.00
             981.13,719.00 1012.31,778.00 1012.31,778.00
             1012.31,778.00 1041.60,835.00 1041.60,835.00
             1041.60,835.00 1129.69,1001.00 1129.69,1001.00
             1129.69,1001.00 1208.32,1150.00 1208.32,1150.00
             1208.32,1150.00 1251.33,1231.00 1251.33,1231.00
             1259.86,1246.77 1271.90,1268.89 1282.38,1283.00
             1295.27,1300.37 1314.05,1319.04 1331.00,1332.49
             1361.83,1356.95 1397.16,1376.54 1436.00,1384.71
             1458.00,1389.35 1477.72,1390.23 1499.91,1391.74
             1499.91,1391.74 1529.00,1393.17 1529.00,1393.17
             1529.00,1393.17 1568.00,1396.95 1568.00,1396.95
             1568.00,1396.95 1601.00,1401.00 1601.00,1401.00
             1605.27,1401.05 1611.35,1401.58 1614.98,1399.26
             1622.11,1394.73 1630.39,1375.15 1627.40,1367.00
             1625.63,1362.18 1619.54,1357.94 1615.00,1356.00
             1615.00,1356.00 1635.00,1341.19 1635.00,1341.19
             1646.49,1332.04 1657.01,1321.91 1666.83,1311.00
             1702.75,1271.09 1726.39,1213.87 1727.00,1160.00
             1727.11,1150.81 1728.15,1136.84 1726.00,1128.00
             1726.00,1128.00 1724.00,1128.00 1724.00,1128.00
             1715.25,1150.60 1711.83,1163.66 1699.69,1186.00
             1676.09,1229.45 1638.83,1266.36 1596.00,1290.85
             1583.09,1298.23 1570.79,1303.93 1557.00,1309.40
             1553.10,1310.95 1540.57,1315.69 1537.00,1315.93
             1532.88,1316.20 1524.02,1312.21 1520.00,1310.48
             1520.00,1310.48 1487.00,1298.00 1487.00,1298.00
             1506.01,1278.99 1526.39,1260.95 1540.77,1238.00
             1563.87,1201.13 1574.38,1153.45 1581.75,1111.00
             1581.75,1111.00 1583.29,1097.00 1583.29,1097.00
             1583.29,1097.00 1586.00,1081.00 1586.00,1081.00
             1586.00,1081.00 1585.00,1080.00 1585.00,1080.00
             1579.13,1083.10 1574.92,1094.06 1571.69,1100.00
             1566.66,1109.26 1556.11,1124.57 1549.58,1133.00
             1522.23,1168.30 1488.73,1199.97 1449.00,1220.94
             1433.52,1229.11 1413.80,1238.35 1396.00,1238.49
             1381.65,1238.60 1373.71,1222.78 1367.20,1212.00
             1350.15,1183.78 1335.68,1145.95 1327.37,1114.00
             1312.45,1056.63 1305.43,998.20 1305.00,939.00
             1305.00,939.00 1305.00,906.00 1305.00,906.00
             1305.00,906.00 1306.00,886.00 1306.00,886.00
             1306.00,886.00 1306.82,872.09 1306.82,872.09
             1306.82,872.09 1311.29,820.00 1311.29,820.00
             1311.29,820.00 1313.71,805.00 1313.71,805.00
             1313.71,805.00 1314.29,797.00 1314.29,797.00
             1314.29,797.00 1320.58,761.00 1320.58,761.00
             1320.58,761.00 1323.90,743.00 1323.90,743.00
             1323.90,743.00 1332.04,708.00 1332.04,708.00
             1333.53,701.79 1336.58,693.24 1337.00,687.00
             1341.78,690.76 1344.91,696.08 1348.42,701.00
             1348.42,701.00 1364.21,722.00 1364.21,722.00
             1382.00,744.59 1407.52,773.48 1432.00,788.57
             1449.70,799.49 1471.44,806.04 1492.00,808.94
             1492.00,808.94 1500.00,808.94 1500.00,808.94
             1500.00,808.94 1516.91,810.91 1516.91,810.91
             1516.91,810.91 1562.00,810.91 1562.00,810.91
             1562.00,810.91 1586.00,810.00 1586.00,810.00
             1586.00,810.00 1634.00,808.00 1634.00,808.00
             1634.00,808.00 1657.00,808.00 1657.00,808.00
             1657.00,808.00 1704.00,814.00 1704.00,814.00
             1705.23,834.78 1698.12,860.05 1692.20,880.00
             1680.62,919.02 1665.37,958.57 1647.20,995.00
             1647.20,995.00 1627.50,1031.00 1627.50,1031.00
             1623.33,1037.42 1615.01,1047.77 1614.00,1055.00
             1632.49,1053.49 1657.74,1038.62 1673.00,1028.33
             1715.47,999.71 1753.38,959.53 1783.09,918.00
             1791.50,906.25 1800.37,891.82 1807.06,879.00
             1808.64,875.96 1814.34,863.11 1816.41,861.81
             1818.84,860.28 1822.62,862.42 1825.00,863.40
             1825.00,863.40 1847.00,872.60 1847.00,872.60
             1847.00,872.60 1876.00,883.14 1876.00,883.14
             1879.04,884.05 1885.23,884.78 1886.99,887.43
             1888.54,889.79 1887.12,895.93 1886.99,899.00
             1886.99,899.00 1881.10,935.00 1881.10,935.00
             1867.49,991.03 1836.02,1022.84 1794.00,1059.85
             1794.00,1059.85 1753.00,1095.72 1753.00,1095.72
             1747.24,1100.76 1737.13,1108.39 1734.00,1115.00
             1734.00,1115.00 1735.00,1116.00 1735.00,1116.00
             1751.55,1112.22 1788.10,1096.20 1804.00,1088.25
             1859.01,1060.74 1913.69,1020.99 1953.58,974.00
             1964.57,961.04 1977.45,944.52 1986.18,930.00
             1986.18,930.00 1996.24,912.00 1996.24,912.00
             1997.49,909.54 2000.40,902.97 2001.85,901.28
             2004.93,897.66 2015.13,897.01 2020.00,896.00
             2031.75,893.56 2037.59,891.34 2047.00,883.54
             2067.62,866.43 2079.33,827.14 2087.19,802.00
             2091.04,789.69 2095.52,773.91 2094.96,761.00
             2093.62,730.28 2067.50,698.61 2051.81,673.00
             2026.47,631.63 2010.06,592.80 1990.30,549.00
             1963.64,489.87 1938.27,430.04 1909.25,372.00
             1909.25,372.00 1883.60,324.00 1883.60,324.00
             1879.45,317.08 1873.29,306.80 1866.91,301.98
             1857.41,294.79 1841.61,290.88 1830.00,288.92
             1816.93,286.71 1807.43,285.15 1794.00,285.00
             1794.00,285.00 1785.09,284.04 1785.09,284.04
             1785.09,284.04 1773.00,284.04 1773.00,284.04
             1755.52,282.13 1735.64,277.97 1720.00,269.89
             1699.77,259.44 1682.94,241.69 1667.83,225.00
             1667.83,225.00 1630.17,184.00 1630.17,184.00
             1613.04,165.03 1590.05,140.08 1569.00,125.84
             1557.34,117.95 1544.41,111.07 1530.00,111.00
             1530.00,111.00 1518.00,111.00 1518.00,111.00
             1494.97,111.27 1472.80,120.46 1456.00,136.09
             1456.00,136.09 1435.00,157.00 1435.00,157.00
             1433.28,158.72 1429.15,163.65 1426.58,163.33
             1425.08,163.14 1418.70,157.93 1417.00,156.71
             1417.00,156.71 1395.00,142.40 1395.00,142.40
             1372.64,128.91 1348.44,117.99 1324.00,108.85
             1297.67,99.01 1271.28,91.52 1244.00,84.96
             1244.00,84.96 1235.00,82.45 1235.00,82.45
             1235.00,82.45 1212.00,78.39 1212.00,78.39
             1212.00,78.39 1203.00,76.12 1203.00,76.12
             1203.00,76.12 1190.00,74.41 1190.00,74.41
             1190.00,74.41 1165.00,70.29 1165.00,70.29
             1165.00,70.29 1157.00,69.71 1157.00,69.71
             1128.13,66.15 1099.12,63.29 1070.00,63.00
             1070.00,63.00 1049.00,62.33 1049.00,62.33
             991.06,62.28 933.34,65.82 876.00,74.27
             709.07,98.86 548.26,158.68 403.00,244.01
             371.15,262.72 340.40,283.02 310.00,303.98
             250.97,344.66 193.45,391.22 141.00,440.09
             141.00,440.09 102.09,477.83 102.09,477.83
             102.09,477.83 69.04,511.00 69.04,511.00
             69.04,511.00 55.00,526.00 55.00,526.00
             52.41,528.62 39.14,542.80 38.02,545.00
             37.23,546.56 37.26,547.39 37.00,549.00 Z
           M 1535.00,313.40
           C 1543.25,312.48 1547.88,316.94 1552.79,323.01
             1559.89,331.81 1566.75,344.13 1572.60,354.00
             1572.60,354.00 1602.74,408.00 1602.74,408.00
             1602.74,408.00 1621.80,453.00 1621.80,453.00
             1621.80,453.00 1629.08,470.00 1629.08,470.00
             1629.08,470.00 1641.05,502.00 1641.05,502.00
             1645.60,514.18 1652.83,530.66 1655.20,543.00
             1657.04,552.61 1657.12,559.61 1645.00,558.91
             1631.42,558.12 1604.73,548.54 1593.00,541.55
             1593.00,541.55 1576.00,529.71 1576.00,529.71
             1562.25,519.91 1549.70,511.48 1538.09,499.00
             1518.39,477.82 1509.56,455.47 1506.93,427.00
             1506.93,427.00 1506.00,417.00 1506.00,417.00
             1505.64,386.19 1505.27,368.60 1516.32,339.00
             1519.85,329.54 1524.58,316.75 1535.00,313.40 Z
           M 585.00,1390.57
           C 576.97,1393.83 578.55,1400.81 580.00,1408.00
             582.30,1419.34 591.32,1441.21 595.81,1453.00
             595.81,1453.00 605.92,1480.00 605.92,1480.00
             605.92,1480.00 613.60,1498.00 613.60,1498.00
             613.60,1498.00 632.26,1542.00 632.26,1542.00
             632.26,1542.00 661.80,1595.00 661.80,1595.00
             668.15,1605.63 674.52,1617.34 682.21,1627.00
             685.85,1631.56 690.87,1636.99 697.00,1637.77
             706.25,1638.95 712.38,1629.15 715.89,1622.00
             724.30,1604.88 730.77,1581.13 731.00,1562.00
             731.32,1534.66 731.41,1506.40 719.69,1481.00
             715.67,1472.28 705.47,1458.05 698.91,1451.00
             685.76,1436.86 671.54,1427.53 656.00,1416.42
             638.20,1403.69 631.74,1400.82 611.00,1394.34
             603.58,1392.02 592.65,1389.19 585.00,1390.57 Z" />
</svg>
