<?xml version="1.0" encoding="UTF-8" standalone="no"?>
<!DOCTYPE svg PUBLIC "-//W3C//DTD SVG 20010904//EN"
              "http://www.w3.org/TR/2001/REC-SVG-20010904/DTD/svg10.dtd">

<svg xmlns="http://www.w3.org/2000/svg"
     width="4.42667in" height="4.66667in"
     viewBox="0 0 1323 1390">
  <path id="face" fill="black"
        d="M 661.48,322.98M 661.50,417.33
           C 661.50,417.33 661.50,323.00 661.50,323.00
             661.50,323.00 1150.45,0.31 1150.45,0.31
             1150.45,0.31 1264.37,798.98 1264.37,798.98
             1264.37,798.98 1322.98,960.98 1322.98,960.98
             1322.98,960.98 661.48,1389.65 661.48,1389.65
             661.48,1389.65 -0.00,960.99 -0.00,960.99
             -0.00,960.99 58.62,798.99 58.62,798.99
             58.62,798.99 172.54,0.33 172.54,0.33
             172.54,0.33 661.50,322.99 661.50,322.99
             661.50,322.99 661.50,417.33 661.50,417.33
             661.50,417.33 238.32,139.33 238.32,139.33
             238.32,139.33 141.39,813.33 141.39,813.33
             141.39,813.33 112.41,892.83 112.41,892.83
             112.41,892.83 207.34,843.33 207.34,843.33
             207.34,843.33 155.38,967.33 155.38,967.33
             155.38,967.33 228.33,1016.83 228.33,1016.83
             228.33,1016.83 262.30,932.83 262.30,932.83
             262.30,932.83 285.28,1054.83 285.28,1054.83
             285.28,1054.83 344.74,1094.33 344.74,1094.33
             344.74,1094.33 457.65,915.33 457.65,915.33
             457.65,915.33 521.61,1263.83 521.61,1263.83
             521.61,1263.83 801.37,1263.81 801.37,1263.81
             801.37,1263.81 865.33,915.31 865.33,915.31
             865.33,915.31 978.24,1094.31 978.24,1094.31
             978.24,1094.31 1037.70,1054.81 1037.70,1054.81
             1037.70,1054.81 1060.68,932.81 1060.68,932.81
             1060.68,932.81 1094.65,1016.81 1094.65,1016.81
             1094.65,1016.81 1167.60,967.31 1167.60,967.31
             1167.60,967.31 1115.64,843.31 1115.64,843.31
             1115.64,843.31 1210.57,892.81 1210.57,892.81
             1210.57,892.81 1181.59,813.31 1181.59,813.31
             1181.59,813.31 1084.66,139.31 1084.66,139.31
             1084.66,139.31 702.03,390.67 664.45,415.37
             664.45,415.37 661.50,417.33 661.50,417.33 Z" />

  <path id="hair"
        fill="black"
        d="M 559.50,350.25
           C 622.85,392.62 714.17,503.17 649.50,619.50
             874.83,508.50 866.35,372.00 795.40,287.00
             724.45,202.00 720.26,121.83 740.44,78.00
             714.13,80.67 612.21,125.33 603.54,145.00
             603.54,145.00 590.22,129.00 589.55,121.00
             540.00,170.67 496.15,307.88 559.50,350.25 Z" />

  <path id="left_eye" fill="black"
        d="M 351.23,701.83
           C 351.23,701.83 460.15,715.83 460.15,715.83
             460.15,715.83 528.60,803.33 528.60,803.33
             528.60,803.33 418.18,789.33 418.18,789.33
             418.18,789.33 351.23,701.83 351.23,701.83 Z" />

  <path id="right_eye" fill="black"
        d="M 971.75,701.81
           C 971.75,701.81 862.83,715.81 862.83,715.81
             862.83,715.81 794.38,803.31 794.38,803.31
             794.38,803.31 904.80,789.31 904.80,789.31
             904.80,789.31 971.75,701.81 971.75,701.81 Z" />

  <path id="left_ear" fill="black"
        d="M 287.03,245.58
           C 287.03,245.58 444.91,343.83 444.91,343.83
             374.39,318.66 278.46,348.99 250.31,439.83
             250.31,439.83 287.03,245.58 287.03,245.58 Z" />

  <path id="right_ear" fill="black"
        d="M 1035.95,245.56
           C 1035.95,245.56 878.07,343.81 878.07,343.81
             948.60,318.65 1044.53,348.98 1072.67,439.81
             1072.67,439.81 1035.95,245.56 1035.95,245.56 Z" />

  <path id="nose" fill="black"
        d="M 661.50,1247.54
           C 661.50,1247.54 546.59,1159.99 546.59,1159.99
             546.59,1159.99 776.39,1159.98 776.39,1159.98
             776.39,1159.98 661.48,1247.52 661.48,1247.52
             661.48,1247.52 661.50,1247.54 661.50,1247.54 Z" />

  <circle id="dot" fill="black" cx="661.5" cy="804" r="42"/>
</svg>
