<svg xmlns="http://www.w3.org/2000/svg" data-name="Layer 1" viewBox="0 0 100 100" x="0px" y="0px"><title>info circle</title><path fill="black" stroke="none" d="M 50.00,0.00 C 22.39,0.00 0.00,22.39 0.00,50.00 0.00,77.61 22.39,100.00 50.00,100.00 77.61,100.00 100.00,77.61 100.00,50.00 99.97,22.40 77.60,0.03 50.00,-0.00 50.00,-0.00 50.00,0.00 50.00,0.00 Z M 56.25,73.72 C 56.24,77.17 53.45,79.96 50.00,79.96 46.55,79.96 43.76,77.17 43.75,73.72 43.75,73.72 43.75,45.62 43.75,45.62
43.76,42.17 46.55,39.38 50.00,39.38 53.45,39.38 56.24,42.17 56.25,45.62 56.25,45.62 56.25,73.72 56.25,73.72 Z M 50.00,32.53 C 50.00,32.53 50.00,32.53 50.00,32.53 46.55,32.53 43.75,29.73 43.75,26.28 43.75,22.83 46.55,20.03 50.00,20.03 53.45,20.03 56.25,22.83 56.25,26.28 56.25,29.73 53.45,32.53 50.00,32.53 50.00,32.53 50.00,32.53 50.00,32.53 Z" /></svg>